#!OML:ASF F:\VICON\USERDATA\INSTALL\rory3\rory3.ASF
:FULLY-SPECIFIED
:DEGREES
776
root -2.69912 18.9904 7.169 3.50878 -22.7711 1.34141
lowerback 3.54985 2.21725 2.09448
upperback -0.233124 2.97741 -3.06248
thorax -1.95915 1.45045 -4.48427
lowerneck -11.3237 -7.29626 -9.00666
upperneck -1.28084 -9.09262 14.74
head 2.60622 -4.13105 5.38789
rclavicle 3.04141e-014 2.66371e-014
rhumerus 40.388 32.2692 9.7548
rradius 98.5781
rwrist 47.9109
rhand -58.4101 31.8563
rfingers 7.12502
rthumb -30.637 4.38625
lclavicle 3.04141e-014 2.66371e-014
lhumerus -30.2721 9.81119 58.7366
lradius 22.1636
lwrist -10.4226
lhand -18.4576 22.6566
lfingers 7.12502
lthumb 7.82868 52.4917
rfemur -6.7229 22.3211 19.0992
rtibia 17.6269
rfoot -11.7712 -17.6514
rtoes -6.66863
lfemur -3.60771 -0.592104 -7.35955
ltibia 22.9608
lfoot -5.37381 20.657
ltoes -19.8776
777
root -2.71324 18.9934 7.17024 3.42416 -22.8356 1.50123
lowerback 3.49609 2.18127 2.05577
upperback -0.223639 2.92555 -3.14619
thorax -1.92159 1.42537 -4.54436
lowerneck -11.1898 -7.22975 -8.99658
upperneck -1.27408 -9.02142 14.8837
head 2.58697 -4.09745 5.44044
rclavicle 6.26172e-015 1.70955e-014
rhumerus 39.9361 31.0272 9.36897
rradius 98.3115
rwrist 47.5509
rhand -59.0897 32.1496
rfingers 7.12502
rthumb -31.2848 4.80281
lclavicle 6.26172e-015 1.70955e-014
lhumerus -30.2388 9.93495 58.4867
lradius 22.2124
lwrist -10.2279
lhand -18.3539 22.6577
lfingers 7.12502
lthumb 7.92878 52.489
rfemur -6.69917 22.3027 18.98
rtibia 17.6391
rfoot -11.8009 -17.5442
rtoes -6.57451
lfemur -3.52973 -0.575591 -7.49014
ltibia 22.938
lfoot -5.28866 20.673
ltoes -19.6665
778
root -2.72738 18.9966 7.1739 3.32728 -22.9112 1.57835
lowerback 3.53068 2.17566 2.03308
upperback -0.243466 2.91723 -3.13564
thorax -1.96387 1.42033 -4.5225
lowerneck -11.0742 -7.20279 -9.13036
upperneck -1.13155 -8.9963 15.003
head 2.62085 -4.08254 5.50259
rclavicle 1.73937e-014 -5.96354e-015
rhumerus 39.5562 29.8736 9.1916
rradius 98.0078
rwrist 46.8255
rhand -59.7191 30.6657
rfingers 7.12502
rthumb -31.8844 3.43665
lclavicle 1.73937e-014 -5.96354e-015
lhumerus -30.2731 10.0719 58.3649
lradius 22.2165
lwrist -10.1944
lhand -18.3539 22.7915
lfingers 7.12502
lthumb 7.92877 52.6228
rfemur -6.61373 22.261 18.9689
rtibia 17.6598
rfoot -11.8412 -17.4332
rtoes -6.51153
lfemur -3.38134 -0.58567 -7.53827
ltibia 22.8811
lfoot -5.17262 20.7558
ltoes -19.786
779
root -2.74053 18.9985 7.17575 3.21795 -22.9687 1.69631
lowerback 3.5327 2.15442 1.97434
upperback -0.248152 2.88659 -3.11887
thorax -1.97639 1.40531 -4.47078
lowerneck -11.0594 -7.23565 -9.07037
upperneck -0.954235 -9.05577 14.7731
head 2.66087 -4.11407 5.41448
rclavicle -4.06515e-014 2.94201e-014
rhumerus 39.2343 28.6144 8.91054
rradius 97.5987
rwrist 46.0538
rhand -60.4912 27.9593
rfingers 7.12502
rthumb -32.6193 0.879494
lclavicle -4.06515e-014 2.94201e-014
lhumerus -30.4409 9.97556 58.3284
lradius 22.4292
lwrist -9.92075
lhand -18.4727 22.9166
lfingers 7.12502
lthumb 7.81413 52.7522
rfemur -6.53606 22.1597 18.9114
rtibia 17.6718
rfoot -12.0996 -17.3417
rtoes -5.50319
lfemur -3.23811 -0.5626 -7.6218
ltibia 22.7948
lfoot -5.03853 20.7838
ltoes -19.6132
780
root -2.75247 18.9999 7.17784 3.16303 -22.9833 1.84641
lowerback 3.44563 2.09199 1.96018
upperback -0.254511 2.80106 -3.16563
thorax -1.94025 1.36306 -4.50383
lowerneck -11.1613 -7.23298 -8.95438
upperneck -0.732463 -9.07564 14.6233
head 2.73068 -4.11846 5.34187
rclavicle 2.78299e-015 1.15295e-014
rhumerus 38.8932 27.2034 8.43296
rradius 97.1514
rwrist 45.3583
rhand -60.8334 25.4699
rfingers 7.12502
rthumb -32.9449 -1.54195
lclavicle 2.78299e-015 1.15295e-014
lhumerus -30.6205 9.90251 58.1819
lradius 22.7465
lwrist -9.66876
lhand -18.382 23.2147
lfingers 7.12502
lthumb 7.90163 53.047
rfemur -6.51249 22.0432 18.7919
rtibia 17.6537
rfoot -12.5868 -17.2969
rtoes -3.49635
lfemur -3.17826 -0.498497 -7.73882
ltibia 22.7202
lfoot -4.77734 20.7422
ltoes -19.7551
781
root -2.7653 19.0017 7.17871 3.15351 -23.039 1.91478
lowerback 3.42791 2.05529 1.98003
upperback -0.318693 2.75146 -3.18699
thorax -1.99904 1.33586 -4.5363
lowerneck -11.2165 -7.18525 -8.89066
upperneck -0.437864 -9.04387 14.5766
head 2.81736 -4.09435 5.31458
rclavicle 1.6201e-014 7.95139e-016
rhumerus 38.4677 25.7395 7.93138
rradius 96.7073
rwrist 44.9137
rhand -61.0137 25.0238
rfingers 7.12502
rthumb -33.1164 -1.95179
lclavicle 1.6201e-014 7.95139e-016
lhumerus -30.7452 9.77497 58.0818
lradius 22.9329
lwrist -9.38853
lhand -18.2574 23.7181
lfingers 7.12502
lthumb 8.02192 53.5458
rfemur -6.52222 21.8891 18.7533
rtibia 17.6421
rfoot -12.7984 -17.0921
rtoes -2.54371
lfemur -3.15113 -0.51387 -7.77211
ltibia 22.6667
lfoot -4.70195 20.7841
ltoes -19.7857
782
root -2.77861 19.0039 7.17483 3.22097 -23.108 1.78924
lowerback 3.43878 2.05276 2.16907
upperback -0.377341 2.75643 -3.15363
thorax -2.05797 1.33453 -4.61099
lowerneck -11.0925 -7.14967 -8.7499
upperneck -0.358268 -9.01971 14.3908
head 2.80052 -4.0904 5.23871
rclavicle -2.11706e-014 4.13472e-014
rhumerus 38.0348 24.146 7.30407
rradius 96.0449
rwrist 44.7063
rhand -61.3199 26.8181
rfingers 7.12502
rthumb -33.4075 -0.0952235
lclavicle -2.11706e-014 4.13472e-014
lhumerus -30.7804 9.63629 58.0631
lradius 23.0896
lwrist -9.07739
lhand -18.2349 24.0775
lfingers 7.12502
lthumb 8.04363 53.9044
rfemur -6.52975 21.8816 18.9173
rtibia 17.6153
rfoot -12.5627 -16.95
rtoes -3.53035
lfemur -3.18507 -0.555291 -7.57487
ltibia 22.6506
lfoot -4.73744 20.8636
ltoes -19.5461
783
root -2.79299 19.0054 7.16841 3.2947 -23.2275 1.71383
lowerback 3.40902 2.03912 2.29842
upperback -0.412719 2.74382 -3.1287
thorax -2.07417 1.3261 -4.65737
lowerneck -10.9535 -7.13633 -8.66881
upperneck -0.383888 -9.01202 14.2756
head 2.75904 -4.09594 5.19476
rclavicle -2.68359e-014 1.23246e-014
rhumerus 37.7737 22.4327 6.6201
rradius 95.3133
rwrist 44.353
rhand -61.4725 27.3807
rfingers 7.12502
rthumb -33.5525 0.498679
lclavicle -2.68359e-014 1.23246e-014
lhumerus -30.8676 9.57749 57.9982
lradius 23.2877
lwrist -8.77181
lhand -18.35 24.0042
lfingers 7.12502
lthumb 7.9325 53.8353
rfemur -6.58326 22.0057 19.0183
rtibia 17.5977
rfoot -12.0433 -16.9458
rtoes -5.50152
lfemur -3.23402 -0.514862 -7.43477
ltibia 22.6371
lfoot -4.53247 20.9447
ltoes -19.6142
784
root -2.80734 19.006 7.16545 3.30283 -23.3868 1.68231
lowerback 3.43671 2.01174 2.3917
upperback -0.47274 2.71163 -3.09893
thorax -2.15191 1.3065 -4.68084
lowerneck -10.923 -7.08203 -8.70217
upperneck -0.212995 -8.95296 14.2644
head 2.79882 -4.06399 5.20043
rclavicle -3.96078e-014 -3.33958e-014
rhumerus 37.6596 20.7059 5.98276
rradius 94.5403
rwrist 44.047
rhand -61.4554 27.1506
rfingers 7.12502
rthumb -33.5363 0.26505
lclavicle -3.96078e-014 -3.33958e-014
lhumerus -31.1148 9.58105 57.8811
lradius 23.5356
lwrist -8.48605
lhand -18.3354 23.9337
lfingers 7.12502
lthumb 7.94662 53.7643
rfemur -6.58958 22.1587 19.0959
rtibia 17.6204
rfoot -11.8002 -17.0002
rtoes -6.47971
lfemur -3.16443 -0.50591 -7.36858
ltibia 22.6132
lfoot -4.46972 21.0394
ltoes -19.6461
785
root -2.82089 19.0069 7.16434 3.2195 -23.4518 1.76472
lowerback 3.46749 1.94942 2.36302
upperback -0.528724 2.6278 -3.05804
thorax -2.23831 1.26236 -4.62131
lowerneck -10.8201 -6.97215 -8.7901
upperneck -0.0266643 -8.81603 14.2284
head 2.82344 -3.99674 5.21582
rclavicle -3.13086e-014 2.78299e-015
rhumerus 37.6459 18.9999 5.40726
rradius 93.7594
rwrist 43.795
rhand -61.4255 26.8636
rfingers 7.12502
rthumb -33.5078 -0.0281094
lclavicle -3.13086e-014 2.78299e-015
lhumerus -31.4258 9.64973 57.8022
lradius 23.7913
lwrist -8.31227
lhand -18.4375 23.7715
lfingers 7.12502
lthumb 7.84807 53.6058
rfemur -6.54129 22.1863 19.0805
rtibia 17.6679
rfoot -11.7926 -17.0222
rtoes -6.44395
lfemur -3.0606 -0.549009 -7.42462
ltibia 22.5928
lfoot -4.4459 21.0828
ltoes -19.5769
786
root -2.83368 19.0098 7.16406 3.11764 -23.4844 1.96173
lowerback 3.44736 1.87918 2.22754
upperback -0.600017 2.52772 -3.02539
thorax -2.31738 1.21143 -4.50723
lowerneck -10.4217 -6.86785 -8.96856
upperneck -0.106413 -8.67366 14.2932
head 2.73045 -3.94202 5.28847
rclavicle -4.79816e-014 1.55052e-014
rhumerus 37.6403 17.2984 4.86009
rradius 92.9991
rwrist 43.4513
rhand -61.3915 27.0441
rfingers 7.12502
rthumb -33.4755 0.145458
lclavicle -4.79816e-014 1.55052e-014
lhumerus -31.7925 9.74784 57.7574
lradius 24.0546
lwrist -8.19717
lhand -18.498 23.7655
lfingers 7.12502
lthumb 7.78965 53.602
rfemur -6.50361 22.2174 18.9326
rtibia 17.6812
rfoot -11.8755 -16.9704
rtoes -6.35792
lfemur -2.9975 -0.580501 -7.59503
ltibia 22.5912
lfoot -4.43031 21.0995
ltoes -18.6771
787
root -2.8478 19.0116 7.16085 3.06452 -23.5695 2.06447
lowerback 3.47921 1.85442 2.2188
upperback -0.672078 2.49341 -3.03634
thorax -2.41275 1.19123 -4.51553
lowerneck -10.1273 -6.82453 -8.96332
upperneck -0.170964 -8.62916 14.3019
head 2.65878 -3.93261 5.30253
rclavicle 1.24017e-013 -7.95139e-016
rhumerus 37.5904 15.5334 4.21418
rradius 92.0728
rwrist 43.0554
rhand -61.3046 26.9298
rfingers 7.12502
rthumb -33.3929 0.0132794
lclavicle 1.24017e-013 -7.95139e-016
lhumerus -31.9911 9.57402 57.761
lradius 24.2663
lwrist -7.9728
lhand -18.456 24.1073
lfingers 7.12502
lthumb 7.83027 53.9423
rfemur -6.45321 22.4125 18.8738
rtibia 17.6425
rfoot -12.0372 -16.9505
rtoes -5.98212
lfemur -2.94933 -0.612608 -7.6536
ltibia 22.5828
lfoot -4.47961 21.1832
ltoes -17.9119
788
root -2.8616 19.0135 7.15393 3.10977 -23.6567 2.0008
lowerback 3.48379 1.84376 2.38368
upperback -0.677874 2.48646 -3.04615
thorax -2.41472 1.18531 -4.61915
lowerneck -10.1259 -6.80182 -8.74282
upperneck -0.171234 -8.61665 14.1435
head 2.63857 -3.93049 5.2187
rclavicle 6.56983e-014 4.37326e-015
rhumerus 37.6286 13.6328 3.31717
rradius 90.984
rwrist 42.5591
rhand -60.8372 25.8952
rfingers 7.12502
rthumb -32.9485 -1.11582
lclavicle 6.56983e-014 4.37326e-015
lhumerus -31.9462 9.46736 57.7375
lradius 24.382
lwrist -7.86049
lhand -18.2923 23.8642
lfingers 7.12502
lthumb 7.98825 53.6932
rfemur -6.44013 22.5398 18.9642
rtibia 17.5495
rfoot -12.0793 -16.9687
rtoes -5.86583
lfemur -2.97163 -0.632161 -7.52608
ltibia 22.581
lfoot -4.43051 21.2376
ltoes -17.8623
789
root -2.8745 19.017 7.14975 3.13321 -23.7026 1.97678
lowerback 3.42165 1.81482 2.50596
upperback -0.650787 2.45271 -3.05567
thorax -2.34971 1.16859 -4.69337
lowerneck -10.1787 -6.791 -8.56209
upperneck -0.116752 -8.61988 14.0267
head 2.64924 -3.93176 5.1509
rclavicle 3.37934e-015 1.59028e-015
rhumerus 37.6672 11.6779 2.28158
rradius 89.8871
rwrist 42.0787
rhand -60.2226 25.408
rfingers 7.12502
rthumb -32.3638 -1.72427
lclavicle 3.37934e-015 1.59028e-015
lhumerus -31.9136 9.33185 57.7589
lradius 24.5353
lwrist -7.62497
lhand -18.1332 23.5794
lfingers 7.12502
lthumb 8.1418 53.4026
rfemur -6.4095 22.356 19.0185
rtibia 17.4363
rfoot -11.906 -16.8572
rtoes -5.82757
lfemur -2.99884 -0.722577 -7.45491
ltibia 22.5937
lfoot -4.31654 21.3028
ltoes -17.9961
